<mxfile host="app.diagrams.net" modified="2022-08-24T07:21:37.096Z" agent="5.0 (Macintosh; Intel Mac OS X 10_15_7) AppleWebKit/537.36 (KHTML, like Gecko) Chrome/104.0.0.0 Safari/537.36" etag="Ow1AIzVPHOUjLJ3uxAvl" version="20.2.6" type="github">
  <diagram id="lRIxkWPpBEm15b34eZ7U" name="第 1 页">
    <mxGraphModel dx="1426" dy="624" grid="1" gridSize="10" guides="1" tooltips="1" connect="1" arrows="1" fold="1" page="1" pageScale="1" pageWidth="827" pageHeight="1169" math="0" shadow="0">
      <root>
        <mxCell id="0" />
        <mxCell id="1" parent="0" />
        <mxCell id="JPpifCRaE9PKn__uxkr2-1" value="" style="outlineConnect=0;dashed=0;verticalLabelPosition=bottom;verticalAlign=top;align=center;html=1;shape=mxgraph.aws3.user;fillColor=#97D077;gradientColor=none;" vertex="1" parent="1">
          <mxGeometry x="120" y="230" width="70" height="120" as="geometry" />
        </mxCell>
        <mxCell id="JPpifCRaE9PKn__uxkr2-2" value="&lt;font style=&quot;font-size: 24px;&quot;&gt;产品介绍&lt;/font&gt;" style="ellipse;whiteSpace=wrap;html=1;fillColor=none;strokeColor=#97D077;" vertex="1" parent="1">
          <mxGeometry x="354" y="120" width="120" height="60" as="geometry" />
        </mxCell>
        <mxCell id="JPpifCRaE9PKn__uxkr2-3" value="&lt;span style=&quot;font-size: 24px;&quot;&gt;我的产品&lt;/span&gt;" style="ellipse;whiteSpace=wrap;html=1;fillColor=none;strokeColor=#97D077;" vertex="1" parent="1">
          <mxGeometry x="354" y="200" width="120" height="60" as="geometry" />
        </mxCell>
        <mxCell id="JPpifCRaE9PKn__uxkr2-4" value="&lt;span style=&quot;font-size: 24px;&quot;&gt;子会员管理&lt;/span&gt;" style="ellipse;whiteSpace=wrap;html=1;fillColor=none;strokeColor=#97D077;" vertex="1" parent="1">
          <mxGeometry x="341" y="280" width="146" height="60" as="geometry" />
        </mxCell>
        <mxCell id="JPpifCRaE9PKn__uxkr2-5" value="&lt;span style=&quot;font-size: 24px;&quot;&gt;我的信息&lt;/span&gt;" style="ellipse;whiteSpace=wrap;html=1;fillColor=none;strokeColor=#97D077;" vertex="1" parent="1">
          <mxGeometry x="354" y="360" width="120" height="60" as="geometry" />
        </mxCell>
        <mxCell id="JPpifCRaE9PKn__uxkr2-6" value="&lt;span style=&quot;font-size: 24px;&quot;&gt;信息通知&lt;/span&gt;" style="ellipse;whiteSpace=wrap;html=1;fillColor=none;strokeColor=#97D077;" vertex="1" parent="1">
          <mxGeometry x="354" y="440" width="120" height="60" as="geometry" />
        </mxCell>
        <mxCell id="JPpifCRaE9PKn__uxkr2-7" value="" style="endArrow=classic;html=1;rounded=0;fontSize=24;strokeColor=#3399FF;entryX=0;entryY=1;entryDx=0;entryDy=0;" edge="1" parent="1" target="JPpifCRaE9PKn__uxkr2-2">
          <mxGeometry width="50" height="50" relative="1" as="geometry">
            <mxPoint x="200" y="310" as="sourcePoint" />
            <mxPoint x="320" y="270" as="targetPoint" />
          </mxGeometry>
        </mxCell>
        <mxCell id="JPpifCRaE9PKn__uxkr2-8" value="" style="endArrow=classic;html=1;rounded=0;fontSize=24;strokeColor=#3399FF;entryX=0.033;entryY=0.75;entryDx=0;entryDy=0;entryPerimeter=0;" edge="1" parent="1" target="JPpifCRaE9PKn__uxkr2-3">
          <mxGeometry width="50" height="50" relative="1" as="geometry">
            <mxPoint x="200" y="310" as="sourcePoint" />
            <mxPoint x="381.57359312880703" y="181.21320343559648" as="targetPoint" />
          </mxGeometry>
        </mxCell>
        <mxCell id="JPpifCRaE9PKn__uxkr2-9" value="" style="endArrow=classic;html=1;rounded=0;fontSize=24;strokeColor=#3399FF;entryX=0;entryY=0.5;entryDx=0;entryDy=0;" edge="1" parent="1" target="JPpifCRaE9PKn__uxkr2-4">
          <mxGeometry width="50" height="50" relative="1" as="geometry">
            <mxPoint x="200" y="310" as="sourcePoint" />
            <mxPoint x="391.57359312880703" y="191.21320343559648" as="targetPoint" />
          </mxGeometry>
        </mxCell>
        <mxCell id="JPpifCRaE9PKn__uxkr2-10" value="" style="endArrow=classic;html=1;rounded=0;fontSize=24;strokeColor=#3399FF;entryX=0.008;entryY=0.367;entryDx=0;entryDy=0;entryPerimeter=0;" edge="1" parent="1" target="JPpifCRaE9PKn__uxkr2-5">
          <mxGeometry width="50" height="50" relative="1" as="geometry">
            <mxPoint x="200" y="310" as="sourcePoint" />
            <mxPoint x="401.57359312880703" y="201.21320343559648" as="targetPoint" />
          </mxGeometry>
        </mxCell>
        <mxCell id="JPpifCRaE9PKn__uxkr2-11" value="" style="endArrow=classic;html=1;rounded=0;fontSize=24;strokeColor=#3399FF;entryX=0.033;entryY=0.3;entryDx=0;entryDy=0;entryPerimeter=0;" edge="1" parent="1" target="JPpifCRaE9PKn__uxkr2-6">
          <mxGeometry width="50" height="50" relative="1" as="geometry">
            <mxPoint x="200" y="310" as="sourcePoint" />
            <mxPoint x="350" y="450" as="targetPoint" />
          </mxGeometry>
        </mxCell>
      </root>
    </mxGraphModel>
  </diagram>
</mxfile>
